<?xml version="1.0" encoding="UTF-8"?>
<svg width="457px" height="471px" viewBox="0 0 457 471" version="1.1" xmlns="http://www.w3.org/2000/svg" xmlns:xlink="http://www.w3.org/1999/xlink">
    <!-- Generator: Sketch 51.3 (57544) - http://www.bohemiancoding.com/sketch -->
    <title>boilerplate logo AE</title>
    <desc>Created with Sketch.</desc>
    <defs>
        <linearGradient x1="0%" y1="50%" x2="100%" y2="50%" id="linearGradient-1">
            <stop stop-color="#F9AE4E" offset="0%"></stop>
            <stop stop-color="#FA6763" offset="100%"></stop>
        </linearGradient>
    </defs>
    <g id="Page-1" stroke="none" stroke-width="1" fill="none" fill-rule="evenodd">
        <g id="boilerplate-logo-AE" fill-rule="nonzero">
            <g id="Group-4">
                <path d="M448.3,262.8 C445.1,267.7 441,272.2 435.9,276.3 L278.5,402.3 C264.9,413.2 247,418.6 229.1,418.5 C211.2,418.4 193.3,412.8 179.6,401.8 L21.4,274.1 C16.3,270 12.1,265.3 8.9,260.4 C-4.9,281.5 -0.7,308.4 21.6,326.3 L179.7,454 C193.4,465 211.3,470.6 229.2,470.7 C247.1,470.8 265,465.4 278.6,454.5 L436,328.5 C458.1,310.9 462.2,284.1 448.3,262.8" id="Shape" fill="url(#linearGradient-1)" opacity="0.502"></path>
                <path d="M36.8,234.5 L179.4,349.6 C193.1,360.6 211,366.2 228.9,366.3 C246.8,366.4 264.7,361 278.3,350.1 L420.2,236.5 L435.7,224.1 C440.8,220 444.9,215.5 448.1,210.6 C458.8,226.9 458.9,246.6 448.3,262.8 C445.2,267.6 441,272.2 435.9,276.3 L278.5,402.3 C264.9,413.2 247,418.6 229.1,418.5 C211.2,418.4 193.3,412.8 179.6,401.8 L21.4,274.1 C16.3,269.9 12.1,265.3 8.9,260.4 C-1.9,244.1 -1.9,224.4 8.7,208.2 C11.9,213.1 16.1,217.7 21.2,221.9 L36.8,234.5 Z" id="Combined-Shape" fill="url(#linearGradient-1)" opacity="0.801506696"></path>
                <path d="M306.6,92.7 L435.6,196.9 C440.7,201.1 444.9,205.7 448.1,210.6 C445,215.4 440.8,220 435.7,224.1 L420.2,236.5 L277.6,121.4 C276.5,120.4 275.3,119.5 274.1,118.7 L306.6,92.7 Z M227.9,52.5 C245.8,52.6 263.7,58.2 277.4,69.2 L278.2,69.9 L234.3,105 C232.3,104.8 230.2,104.7 228.1,104.7 C210.2,104.6 192.3,110 178.7,120.9 L36.8,234.5 L21.2,221.9 C16.1,217.7 11.9,213.1 8.7,208.2 C11.9,203.4 16,198.8 21.1,194.7 L178.5,68.7 C192.1,57.8 210,52.4 227.9,52.5 Z" id="Combined-Shape" stroke="url(#linearGradient-1)" fill="url(#linearGradient-1)"></path>
                <path d="M229.1,203.4 C222.7,203.4 216.3,201.4 211.4,197.4 C201.6,189.5 201.6,176.8 211.3,169 C216.2,165.1 222.6,163.2 229,163.2 C235.4,163.2 241.8,165.2 246.7,169.2 C256.5,177.1 256.5,189.8 246.8,197.6 C241.9,201.5 235.5,203.4 229.1,203.4 M310.6,43.9 L278.2,69.8 L234.3,105 L183,146.1 C157.7,166.4 157.8,199.4 183.2,220 C195.9,230.3 212.6,235.5 229.2,235.5 C245.8,235.5 262.5,230.6 275.1,220.5 C300.4,200.2 300.3,167.2 274.9,146.6 C268.6,141.5 261.4,137.7 253.7,135.1 L274.1,118.8 L306.6,92.8 L339,66.8 L310.6,43.9" id="Shape" fill="#FFFFFF"></path>
                <path d="M339,66.8 L306.6,92.7 L435.6,196.9 C440.7,201 444.9,205.7 448.1,210.6 C461.9,189.5 457.7,162.6 435.4,144.7 L339,66.8 M227.8,0.2 C245.7,0.3 263.6,5.9 277.2,17 L310.6,44 L278.2,69.9 L277.4,69.2 C263.7,58.2 245.8,52.6 227.9,52.5 C210,52.4 192.1,57.8 178.5,68.7 L21.1,194.7 C16,198.8 11.9,203.3 8.7,208.2 C-5.2,186.9 -1.1,160.1 21,142.4 L178.4,16.4 C192,5.5 209.9,0.1 227.8,0.2 Z M229,163.2 C235.4,163.2 241.8,165.2 246.7,169.2 C256.5,177.1 256.5,189.8 246.8,197.6 C241.9,201.5 235.5,203.4 229.1,203.4 C222.7,203.3 216.3,201.4 211.4,197.4 C201.6,189.5 201.6,176.8 211.3,169 C216.2,165.1 222.6,163.2 229,163.2 Z M228.1,104.7 C230.2,104.7 232.3,104.8 234.4,104.9 L183,146 C157.7,166.3 157.8,199.4 183.2,219.9 C195.9,230.1 212.6,235.3 229.2,235.4 C245.8,235.5 262.4,230.5 275.1,220.4 C300.4,200.1 300.3,167 274.9,146.5 C268.7,141.4 261.4,137.6 253.7,135 L274.1,118.7 C275.3,119.6 276.5,120.5 277.6,121.4 L420.2,236.5 L278.3,350.1 C264.7,361 246.8,366.4 228.9,366.3 C211,366.2 193.1,360.6 179.4,349.6 L36.8,234.5 L178.7,120.9 C192.3,110 210.2,104.6 228.1,104.7 Z" id="Combined-Shape" fill="url(#linearGradient-1)"></path>
            </g>
        </g>
    </g>
</svg>